<svg xmlns="http://www.w3.org/2000/svg" viewBox="-12 -12 24 24"><circle cx="8.2" cy="0" r="3.5" fill="#e86a00"/><circle cx="7.39" cy="3.56" r="3.5" fill="#e86a00"/><circle cx="5.11" cy="6.41" r="3.5" fill="#e86a00"/><circle cx="1.82" cy="7.99" r="3.5" fill="#e86a00"/><circle cx="-1.82" cy="7.99" r="3.5" fill="#e86a00"/><circle cx="-5.11" cy="6.41" r="3.5" fill="#e86a00"/><circle cx="-7.39" cy="3.56" r="3.5" fill="#e86a00"/><circle cx="-8.2" cy="0" r="3.5" fill="#e86a00"/><circle cx="-7.39" cy="-3.56" r="3.5" fill="#e86a00"/><circle cx="-5.11" cy="-6.41" r="3.5" fill="#e86a00"/><circle cx="-1.82" cy="-7.99" r="3.5" fill="#e86a00"/><circle cx="1.82" cy="-7.99" r="3.5" fill="#e86a00"/><circle cx="5.11" cy="-6.41" r="3.5" fill="#e86a00"/><circle cx="7.39" cy="-3.56" r="3.5" fill="#e86a00"/><circle cx="7.45" cy="1.51" r="3.2" fill="#ff8a00"/><circle cx="6.06" cy="4.59" r="3.2" fill="#ff8a00"/><circle cx="3.46" cy="6.76" r="3.2" fill="#ff8a00"/><circle cx="0.19" cy="7.6" r="3.2" fill="#ff8a00"/><circle cx="-3.13" cy="6.93" r="3.2" fill="#ff8a00"/><circle cx="-5.82" cy="4.88" r="3.2" fill="#ff8a00"/><circle cx="-7.37" cy="1.87" r="3.2" fill="#ff8a00"/><circle cx="-7.45" cy="-1.51" r="3.2" fill="#ff8a00"/><circle cx="-6.06" cy="-4.59" r="3.2" fill="#ff8a00"/><circle cx="-3.46" cy="-6.76" r="3.2" fill="#ff8a00"/><circle cx="-0.19" cy="-7.6" r="3.2" fill="#ff8a00"/><circle cx="3.13" cy="-6.93" r="3.2" fill="#ff8a00"/><circle cx="5.82" cy="-4.88" r="3.2" fill="#ff8a00"/><circle cx="7.37" cy="-1.87" r="3.2" fill="#ff8a00"/><circle cx="5" cy="0" r="2.9" fill="#ff9a33"/><circle cx="4.21" cy="2.7" r="2.9" fill="#ff9a33"/><circle cx="2.08" cy="4.55" r="2.9" fill="#ff9a33"/><circle cx="-0.71" cy="4.95" r="2.9" fill="#ff9a33"/><circle cx="-3.27" cy="3.78" r="2.9" fill="#ff9a33"/><circle cx="-4.8" cy="1.41" r="2.9" fill="#ff9a33"/><circle cx="-4.8" cy="-1.41" r="2.9" fill="#ff9a33"/><circle cx="-3.27" cy="-3.78" r="2.9" fill="#ff9a33"/><circle cx="-0.71" cy="-4.95" r="2.9" fill="#ff9a33"/><circle cx="2.08" cy="-4.55" r="2.9" fill="#ff9a33"/><circle cx="4.21" cy="-2.7" r="2.9" fill="#ff9a33"/><circle cx="2.6" cy="0" r="2.3" fill="#ffb37a"/><circle cx="1.84" cy="1.84" r="2.3" fill="#ffb37a"/><circle cx="0" cy="2.6" r="2.3" fill="#ffb37a"/><circle cx="-1.84" cy="1.84" r="2.3" fill="#ffb37a"/><circle cx="-2.6" cy="0" r="2.3" fill="#ffb37a"/><circle cx="-1.84" cy="-1.84" r="2.3" fill="#ffb37a"/><circle cx="-0" cy="-2.6" r="2.3" fill="#ffb37a"/><circle cx="1.84" cy="-1.84" r="2.3" fill="#ffb37a"/><circle cx="0" cy="0" r="1.7" fill="#c25200"/></svg>
